PathFileType	4	(X/Y/Z)	/Users/mathieubourgeois/Desktop/Analyse/Traitement/Sujet_07/Data/Transformed_Sujet_07_velo_80.trc
DataRate	CameraRate	NumFrames	NumMarkers	Units	OrigDataRate	OrigDataStartFrame	OrigNumFrames
120.000000	120.000000	6	36	mm	120.000000	0	1868
Frame#	Time	RFHD			LFHD			RBHD			LBHD			C7			CLAV			RSHO			LSHO			STRN			T10			RBWT			LBWT			RFWT			LFWT			RKNI			LKNI			RKNE			LKNE			LANI			RANI			LANE			RANE			LTOE			RTOE			LHEE			RHEE			RHUM			LHUM			RRAD			LRAD			RWRA			RWRB			LWRA			LWRB			LCAR			RCAR			
		X1	Y1	Z1	X2	Y2	Z2	X3	Y3	Z3	X4	Y4	Z4	X5	Y5	Z5	X6	Y6	Z6	X7	Y7	Z7	X8	Y8	Z8	X9	Y9	Z9	X10	Y10	Z10	X11	Y11	Z11	X12	Y12	Z12	X13	Y13	Z13	X14	Y14	Z14	X15	Y15	Z15	X16	Y16	Z16	X17	Y17	Z17	X18	Y18	Z18	X19	Y19	Z19	X20	Y20	Z20	X21	Y21	Z21	X22	Y22	Z22	X23	Y23	Z23	X24	Y24	Z24	X25	Y25	Z25	X26	Y26	Z26	X27	Y27	Z27	X28	Y28	Z28	X29	Y29	Z29	X30	Y30	Z30	X31	Y31	Z31	X32	Y32	Z32	X33	Y33	Z33	X34	Y34	Z34	X35	Y35	Z35	X36	Y36	Z36	

1	0	257.0604248046875	1350.564086914062	182.914321899414	279.5134582519531	1332.879638671875	52.86579895019527	209.6807708740234	1494.484252929688	172.8421325683593	230.9058227539062	1491.001220703125	29.70350265502923	63.75690078735351	1489.921752929688	67.65564727783196	42.77747344970702	1355.571655273438	73.43109130859366	63.38677215576169	1425.704345703125	218.6006774902343	103.5865478515625	1462.137451171875	-58.67695236206063	-114.7485046386719	1282.472900390625	44.51682281494131	-182.1963500976562	1511.052612304688	27.51285552978504	-438.9191589355469	1310.375610351562	86.82882690429673	-436.6639099121094	1294.970458984375	-25.93091583251966	-282.0645751953125	1229.601318359375	141.9943695068358	-284.7521057128906	1205.35205078125	-68.69554901123057	0.4111832082271435	906.5836791992188	114.997688293457	-206.5298614501953	681.6864624023438	-35.91645812988288	-13.65379238128665	967.9694213867188	216.2423095703124	-181.1005706787109	729.8618774414062	-142.4195098876954	-302.919189453125	310.7567138671875	-51.38101196289068	-187.3653259277344	573.5909423828125	129.8550262451171	-322.4772033691406	303.3785400390625	-139.5751037597657	-211.0755920410157	572.0076904296875	218.6543884277343	-151.1300506591797	175.38525390625	-106.231803894043	-20.38313484191897	474.9628295898438	196.431167602539	-382.1272277832031	309.4642639160156	-101.8808364868165	-272.6336364746094	559.4581298828125	179.2258911132812	71.26963806152341	1091.80419921875	243.6078948974609	105.8539810180664	1127.80126953125	-151.3264312744141	113.2115097045898	1117.10595703125	291.7036132812499	171.2070617675782	1143.340209960938	-159.6038055419922	319.7003479003906	936.4031372070312	253.1162414550781	281.5133361816406	899.9978637695312	307.0328063964844	318.8951110839844	929.173583984375	-103.53955078125	278.5566101074219	886.701416015625	-155.9354705810547	373.3973388671875	913.958984375	-193.2139892578125	371.7738342285156	925.7421264648438	341.3261413574219	
2	0.008333333333333333	257.1847534179688	1350.959838867188	182.9964141845703	279.64599609375	1333.13623046875	52.9572257995605	209.6334686279297	1494.770874023438	172.8159790039062	230.8380279541016	1491.193725585938	29.67509269714349	63.8140754699707	1489.935791015625	67.64198303222649	42.85400009155273	1355.5517578125	73.4339065551757	63.46751403808591	1425.799926757812	218.5191497802734	103.5628890991211	1462.22998046875	-58.62366104125984	-114.7085189819336	1282.457641601562	44.81127929687491	-182.1821899414062	1511.026977539062	27.98592376708973	-439.0973205566406	1310.379760742188	87.2651214599608	-436.9202880859375	1295.187255859375	-25.53385353088392	-282.3931884765625	1229.481201171875	142.2000732421874	-284.8163757324219	1205.646362304688	-69.03708648681651	-0.3494945466518543	903.0376586914062	115.0351486206054	-204.1725921630859	684.644287109375	-36.94440460205085	-15.25303173065188	964.3521728515625	215.957046508789	-178.0334014892578	732.3555297851562	-143.2650909423829	-311.5040283203125	317.281005859375	-51.82506179809576	-180.849594116211	565.0692138671875	130.1694183349609	-331.2858276367188	310.3050537109375	-140.0042114257813	-203.0248718261719	562.8560180664062	218.5889892578124	-162.2891540527344	179.6165313720703	-106.7520141601563	-9.180951118469263	471.6246032714844	196.8553009033203	-390.9596557617188	317.6100769042969	-102.3525848388672	-264.6515197753906	548.59033203125	178.3316650390624	71.2668762207031	1091.936889648438	243.6029205322265	106.0137252807617	1127.948486328125	-151.1708526611329	113.2579116821289	1117.25390625	291.6700134277343	171.4617919921875	1143.510009765625	-159.2230224609375	319.6285400390624	936.4110107421875	253.1610565185547	281.4450378417968	900.0142211914062	307.0635986328125	318.9097290039062	929.211669921875	-103.5016708374024	278.5705871582031	886.775634765625	-155.9282531738282	373.4201354980469	913.9812622070312	-193.1743621826172	371.7104492187499	925.7525634765625	341.3704528808594	
3	0.01666666666666667	257.2046508789062	1351.275024414062	183.0457916259765	279.6952209472656	1333.38623046875	52.94554901123043	209.4857788085937	1495.016845703125	172.7359161376953	230.6713409423828	1491.3720703125	29.56367492675775	63.75614929199218	1489.917846679688	67.58100128173821	42.92174530029296	1355.501098632812	73.37852478027335	63.47737503051755	1425.86669921875	218.3478851318359	103.4364013671875	1462.303466796875	-58.65077590942391	-114.721923828125	1282.400634765625	45.07332992553702	-182.2877197265625	1510.980346679688	28.49283790588368	-439.2490234375	1310.254516601562	87.73934936523423	-437.2841491699219	1295.347534179688	-25.02931594848646	-282.6979064941406	1229.271606445312	142.4342346191405	-285.5591735839844	1205.896850585938	-68.43122100830088	-1.462154269218459	899.0453491210938	115.1213302612304	-199.9752655029297	687.799072265625	-37.76000976562506	-17.01842689514163	960.0792846679688	215.8106536865234	-174.4207000732422	735.2424926757812	-144.2110290527345	-319.4654846191406	324.5186767578125	-52.26837158203131	-172.9125061035157	556.0105590820312	130.061050415039	-339.6229553222656	317.9977722167969	-140.4593200683594	-195.2031860351563	553.1018676757812	218.6523742675781	-173.5071258544922	184.0818939208984	-107.0007247924805	0.9413984417915102	467.8926391601562	197.6934661865234	-399.2674255371094	326.5685424804688	-102.8604736328126	-256.4856872558594	536.8963012695312	178.6857452392578	71.21678161621091	1092.041137695312	243.6468353271484	106.0732574462891	1128.066650390625	-151.1219329833985	113.2605895996093	1117.393310546875	291.6575622558593	171.5548248291016	1143.652587890625	-158.9791870117188	319.5354614257812	936.4291381835938	253.2267761230468	281.3335266113281	900.0324096679688	307.1342468261719	319.2658996582031	929.5504760742188	-103.3701705932617	278.5595397949219	886.8601684570312	-155.8957824707032	373.4205627441406	914.0186157226562	-193.1327972412109	371.6403503417968	925.7637939453125	341.4253540039062	
4	0.025	256.8762512207031	1351.554931640625	182.9536590576171	279.6619567871094	1333.624755859375	52.83095550537105	209.2445068359375	1495.217407226562	172.5802001953124	230.3737030029297	1491.52197265625	29.3873443603515	63.57339477539062	1489.904174804688	67.45288848876946	42.88344955444335	1355.430419921875	73.2533645629882	63.39761734008786	1425.916381835938	218.1458892822265	103.1477813720703	1462.343872070312	-58.74509048461922	-114.8401184082031	1282.3310546875	45.26990509033194	-182.4937133789062	1510.919677734375	28.95178985595692	-439.4179992675781	1310.010498046875	88.4158782958983	-437.6943664550781	1295.442504882812	-24.42486000061048	-282.9595031738281	1228.943359375	142.7055053710936	-285.6708679199219	1206.264770507812	-68.72845458984385	-2.771573543548598	894.5174560546875	115.1823272705078	-195.6915893554688	691.6094970703125	-38.91421127319342	-18.62235069274905	955.0404052734375	215.6583099365234	-170.6040954589843	738.4859008789062	-145.3667602539063	-327.1180419921875	332.8147583007812	-52.78371810913092	-163.047348022461	546.2063598632812	129.7610473632812	-347.4554443359375	326.5772705078125	-140.9584045410157	-187.0852355957032	543.0247192382812	218.4039611816406	-183.827392578125	190.0123138427734	-107.4093017578125	11.08673286437986	462.8421325683594	198.2359313964843	-406.9973449707031	336.3948364257812	-103.3418655395509	-247.9588623046875	525.0269775390625	178.471939086914	71.12037658691403	1092.116821289062	243.7466735839843	106.0015487670899	1128.144897460938	-151.0849761962891	113.1478042602539	1117.510131835938	291.7600097656249	171.4700012207032	1143.806396484375	-158.9226226806641	319.6000976562499	936.4798583984375	253.3214721679687	281.2362365722656	900.0518188476562	307.2239685058594	319.0171508789062	929.0973510742188	-103.4358367919922	278.537109375	886.9102172851562	-155.8119354248047	373.3926696777344	914.0623779296875	-193.0790405273438	371.5435485839843	925.7731323242188	341.4896850585938	
5	0.03333333333333333	256.8777465820312	1351.68798828125	182.4839935302734	279.5124206542969	1333.818969726562	52.77334213256832	209.041030883789	1495.1181640625	172.0187530517578	230.0097198486328	1491.610717773438	29.24583244323724	63.27685546874999	1489.634887695312	67.32427215576165	42.70800781249999	1355.351318359375	73.0815887451171	63.23440933227536	1425.884399414062	217.8027801513671	102.75439453125	1462.3974609375	-58.88279724121102	-115.1567916870117	1282.193481445312	45.47005462646475	-182.8711853027344	1510.825561523438	29.50730895996082	-439.56005859375	1309.664916992188	89.15464019775376	-438.1454772949219	1295.494384765625	-23.73910331726087	-283.1566162109375	1228.491577148438	142.9917449951171	-286.1415405273438	1206.602416992188	-68.73051452636729	-3.44226717948915	888.05517578125	114.9351119995117	-191.4033203125	695.6950073242188	-40.16316986083991	-20.92750358581545	949.3656005859375	216.0120697021484	-166.1407318115234	742.100830078125	-146.5434570312501	-334.3576049804688	341.6847534179688	-52.92811203002936	-156.0229949951172	536.210205078125	129.7864532470703	-354.7022094726562	335.8675537109375	-141.3516693115235	-179.5036163330078	532.6080322265625	218.3818664550781	-193.6418304443359	196.652099609375	-107.7685546875	20.67633056640623	456.8109436035156	198.7272338867187	-414.0976867675781	346.9681396484375	-103.7714767456055	-239.6083679199219	513.003662109375	178.1366271972656	70.98734283447263	1092.137939453125	243.8632659912109	105.835563659668	1128.192749023438	-151.0745849609376	113.0949020385742	1117.578369140625	291.7814025878906	171.2886352539063	1143.881225585938	-158.863510131836	319.4371032714843	936.5751342773438	253.3602142333984	281.1123657226562	900.0516357421875	307.26708984375	318.4273376464844	928.9022216796875	-103.6950988769531	278.4249877929688	887.014892578125	-155.8650360107422	373.2974243164062	914.1231689453125	-193.1266784667969	371.4468383789062	925.806640625	341.5253601074219	
6	0.04166666666666666	256.4354858398438	1351.781127929688	182.5000915527343	279.3611145019531	1334.000854492188	52.37449264526363	208.4389343261718	1495.28857421875	172.0111846923828	229.6249694824219	1491.731079101562	28.84711837768548	62.89407730102538	1489.691772460938	66.89847564697259	42.45773696899413	1355.273071289062	72.7869338989257	63.04047393798825	1425.863037109375	217.6268615722655	102.303451538086	1462.378051757812	-59.13425827026375	-115.5100784301758	1282.149291992188	45.72123336791983	-183.292724609375	1510.779907226562	29.92091941833485	-439.6290588378906	1309.174560546875	90.02678680419908	-438.6506042480469	1295.512939453125	-22.92451667785658	-283.3963317871094	1227.875244140625	143.4037322998046	-286.6246643066406	1207.011474609375	-68.56904602050791	-4.899054050445571	881.7603149414062	114.9931259155273	-186.7473449707031	700.0111694335938	-41.47106933593756	-23.1496448516846	943.0067749023438	215.7835235595703	-161.3604736328125	746.072021484375	-147.8221130371095	-340.6495666503906	351.2871704101562	-53.46382904052741	-149.6960601806641	525.7884521484375	129.9138946533203	-361.2655944824219	345.8123474121094	-141.7058715820313	-171.849365234375	521.6898803710938	218.3573455810546	-202.8944244384766	204.0133666992188	-108.1089935302735	29.76306533813474	449.8626098632812	199.0562286376953	-420.5305480957031	358.1859741210938	-103.9371948242188	-231.4910278320313	500.7688293457031	177.8446655273437	70.85134124755857	1092.175537109375	244.0500183105468	105.6786804199219	1128.155151367188	-150.7810516357422	113.0088882446289	1117.618408203125	291.7969970703124	170.9421844482422	1143.890502929688	-158.7333526611328	319.3878784179687	936.6665649414062	253.3389129638672	281.1111755371093	900.1878051757812	307.3574523925781	318.1740417480469	928.97900390625	-103.8426895141602	278.3207397460938	887.1530151367188	-155.8395690917969	373.0697326660156	914.1250610351562	-193.0751953125	371.2658996582031	925.8648681640625	341.5829772949219	
